<svg xmlns="http://www.w3.org/2000/svg" viewBox="0 0 549 549"><defs><style>.cls-1{fill:#3175ba;}</style></defs><g id="Capa_2" data-name="Capa 2"><g id="Capa_1-2" data-name="Capa 1"><path class="cls-1" d="M201.17,370.47c.18,13.38.6,24.72,2.07,34,18.6-8.13,33.32-25.17,46-55.54,5.81-14,21.76-52.59,38.42-92.88a190.65,190.65,0,0,1-33.1,2.9H201.17Z"/><path class="cls-1" d="M261.61,500.38v-2.13L376.33,292.34H336.57c-32.46,0-58.75,24.67-67.89,44.24h-1.83l19-46.36h55c-15.55-38.45-30.92-76.3-32.36-79.6-4.43,10.66-11.33,27.34-18.64,45h0c-15.08,36.51-31.94,77.45-32.77,79.28-12.75,32.63-9.46,74.21,18.1,74.21v1.94H204.58c4.11,16.36,13.23,24.62,34,24.62v3H71.86v-3c33.81,0,37.37-22,37.37-65.25V91.69c0-13.87-.36-25.49-1.91-34.9A274,274,0,0,0,0,274.5C0,426.1,122.9,549,274.5,549a273.21,273.21,0,0,0,156-48.62Z"/><path class="cls-1" d="M294.89,141.51c0-55.16-14.24-115.07-48.64-115.07h-7.71c-33.81,0-36.78,21.36-37.37,65.25V256h45.08C290.73,256,294.89,196.09,294.89,141.51Z"/><path class="cls-1" d="M274.5,0A273.43,273.43,0,0,0,163.29,23.48h97.19c57.54,0,132.28,33.21,132.28,118,0,26.75-7.33,48.3-19.37,65.28,11.09,26.48,23.8,56.81,35,83.43h34.25v2.12L423.56,326.4c6.14,14.58,10.77,25.53,12.82,30.31,11.1,24.86,22.21,52.45,48.12,52.45v1.94H376.18l-48.75,87.15H375c32.45,0,81.3-24.91,90.44-44.91h1.83l-10.56,26.47A273.8,273.8,0,0,0,549,274.5C549,122.9,426.1,0,274.5,0Z"/></g></g></svg>