<svg width="682" height="665" viewBox="0 0 682 665" fill="none" xmlns="http://www.w3.org/2000/svg">
<ellipse cx="341" cy="332.5" rx="341" ry="332.5" fill="white"/>
<path d="M335.62 83H147V86C180.81 86 184.37 107.32 184.37 151.21V430C184.37 473.3 180.81 495.25 147 495.25V498.25H313.68V495.25C279.87 495.25 276.9 473.3 276.31 430V318.48H329.69C341.537 318.489 353.359 317.388 365 315.19V315.19L383.9 264.65L401.45 303.58C400.81 303.97 400.13 304.37 399.45 304.77C437.9 288.07 467.9 255.2 467.9 201C467.9 116.22 393.16 83 335.62 83ZM321.39 315.52H276.31V151.21C276.9 107.32 279.87 86 313.68 86H321.39C355.79 86 370 145.87 370 201C370 255.61 365.87 315.52 321.39 315.52Z" fill="#3175BA"/>
<path d="M511.52 416.23C500.82 391.36 420.21 198.66 420.21 198.66H411.21C411.21 198.66 338.41 374.66 324.42 408.46C308.42 446.92 289.05 464.02 262.72 468.68V470.62H350.33V468.68C322.78 468.68 319.48 427.11 332.24 394.47C333.47 391.75 370.08 302.78 383.65 270.14C385.09 273.44 400.46 311.29 416.01 349.74H460.56L435.56 398.09C442.88 416.26 448.33 429.88 449.49 432.93C461 461.3 458.13 468.68 437.97 468.68V470.62H559.64V468.68C533.73 468.68 522.62 441.09 511.52 416.23Z" fill="#3AC60C"/>
<path d="M517.75 351.871L402.56 557.771H450.1C482.55 557.771 531.39 532.861 540.54 512.871H542.36L523.62 559.871H336.74V557.741L451.47 351.841H411.71C379.25 351.841 352.96 376.501 343.82 396.071H342L361 349.711H517.75V351.871Z" fill="#F7BE2F"/>
</svg>
